<svg xmlns="http://www.w3.org/2000/svg" width="1001" height="615.699" viewBox="0 0 1001 615.699"><defs><style>.a,.d{fill:#6c63ff;}.a,.e{opacity:0.1;}.b,.h{opacity:0.2;}.c{fill:#3f3d56;}.f{fill:#f1c0c0;}.g{fill:#be6f72;}.i{fill:#fed253;}.j{fill:#fbbebe;}</style></defs><g transform="translate(0.02 0)"><path class="a" d="M1012.07,483.209a205.125,205.125,0,0,1-6.009,49.5q-2.023,8.184-4.7,16.028a189.282,189.282,0,0,1-7.581,18.969q-2.167,4.691-4.581,9.2a123.707,123.707,0,0,1-10.343,49.708,128.15,128.15,0,0,1-62.193,64.08,130.819,130.819,0,0,1-55.521,12.748H201.107a166.3,166.3,0,0,1-83.643-22.36l-.391-.221q-5.431-3.179-10.589-6.731a166.081,166.081,0,0,1-21.731-17.915,161.713,161.713,0,0,1-23.89-29.6,157.955,157.955,0,0,1-24.3-84.332c-16.1-28.258-25.5-62.108-25.5-98.482,0-45.892,14.924-87.757,39.442-119.448a167.929,167.929,0,0,1,16.751-18.637,155.877,155.877,0,0,1,19.156-15.68,149.047,149.047,0,0,1,17-10.2c2.456-1.249,4.921-2.431,7.428-3.527,2.2-.977,4.428-1.887,6.68-2.745q4.054-1.538,8.21-2.83t8.2-2.261q5.949-1.453,12.1-2.363c3.4-.5,6.8-.85,10.2-1.113,2.7-.2,5.431-.314,8.176-.348H165.9c3.025,0,6.034.119,9.017.323.314-.629.654-1.266.969-1.887,1.19-2.269,2.422-4.53,3.663-6.739a.213.213,0,0,1,0-.059c.212-.391.425-.773.646-1.147,1-1.81,2.048-3.6,3.119-5.38.493-.85.977-1.649,1.479-2.448a6.508,6.508,0,0,1,.348-.578q.765-1.275,1.555-2.55,3.935-6.289,8.184-12.357l.722-1.037c.442-.629.85-1.241,1.343-1.87,1.173-1.64,2.38-3.289,3.595-4.9.85-1.156,1.7-2.3,2.618-3.4q3.314-4.249,6.8-8.5t7.241-8.388c.34-.382.68-.756,1.037-1.13l3.629-3.96h0c.178-.187.331-.357.5-.527h0c.433-.467.85-.935,1.317-1.385,1.946-2.065,3.943-4.088,5.949-6.1a323.962,323.962,0,0,1,32.55-28.36c.45-.357.909-.7,1.36-1.037,2.159-1.623,4.351-3.229,6.544-4.81a344.452,344.452,0,0,1,37.742-23.541c.9-.518,1.819-1,2.745-1.479a360.347,360.347,0,0,1,36.111-16.623c6.722-2.66,13.6-5.159,20.516-7.445,4.606-1.513,9.229-2.949,13.912-4.3q10.98-3.161,22.113-5.669a393.782,393.782,0,0,1,66.493-9.06q10.2-.518,20.626-.535a395.189,395.189,0,0,1,99.434,12.578,3.586,3.586,0,0,0,3.085,1.606h2.856c1.241.34,2.473.68,3.714,1.037q10.394,2.991,20.49,6.535l1.7.612a365.808,365.808,0,0,1,48.366,21.246,349.02,349.02,0,0,1,40.5,25.02q2.983,2.142,5.881,4.317,3.519-2.252,7.156-4.317a140.755,140.755,0,0,1,29.643-12.637,135.213,135.213,0,0,1,66.493-2.6c28.258,5.992,53.839,20.864,74.5,42.017a173.833,173.833,0,0,1,22.343,28.368c.468.731.935,1.47,1.385,2.218a186.978,186.978,0,0,1,14.227,28.36c.144.365.289.705.416,1.062a196.37,196.37,0,0,1,8.754,28.343c.1.493.221.977.323,1.47a204.049,204.049,0,0,1,4.181,28.36,5.492,5.492,0,0,0,.068,1.045q.535,7.4.544,14.958c0,4.5-.153,8.975-.433,13.411,0,.484-.068.986-.11,1.487-.076,1.283-.187,2.55-.3,3.841a161.281,161.281,0,0,1,18.17,17.142q3.714,4.054,7.19,8.414a178.99,178.99,0,0,1,18.527,28.36A199.023,199.023,0,0,1,1012.07,483.209Z" transform="translate(-11.09 -87.76)"/><path class="a" d="M934.762,787.927c0,5.8-20,11.244-54.892,15.918H219.834a166.3,166.3,0,0,1-83.643-22.36l-.391-.221c10.028-3.654,28.13-7.062,52.768-10.139h0l1.1-.136c11.048-1.351,23.4-2.635,36.892-3.85a8.41,8.41,0,0,0,1.028-.094h0q16.062-1.428,34.173-2.677c.382,0,.756-.068,1.139-.085q6.986-.5,14.261-.952h0l1.87-.119c35.312-2.193,75.451-3.943,118.98-5.1h.051q9.145-.255,18.484-.45,10.385-.246,21.026-.433c5.414-.119,10.9-.2,16.394-.289h.127c24.807-.374,50.439-.561,76.649-.561,64.81,0,126.068,1.181,180.349,3.306h.153c8.346.323,16.538.68,24.527,1.045l6.8.323q13.521.646,26.346,1.385h0C869.459,768.159,934.762,777.448,934.762,787.927Z" transform="translate(-29.817 -188.146)"/><g class="b" transform="translate(528.058 335.684)"><path class="c" d="M688.161,749.639a16.131,16.131,0,0,1-.314,2.728q-8.873-1.411-17.847-2.55v-.731a14.344,14.344,0,0,1,2.125-7.207c1.751-2.771,4.411-4.5,7.343-4.411s5.473,1.989,7.045,4.853a14.337,14.337,0,0,1,1.649,7.317Z" transform="translate(-638.08 -520.99)"/><ellipse class="c" cx="11.907" cy="9.094" rx="11.907" ry="9.094" transform="translate(32.018 225.456) rotate(-88.19)"/><ellipse class="c" cx="11.907" cy="9.094" rx="11.907" ry="9.094" transform="translate(32.482 210.906) rotate(-88.19)"/><ellipse class="c" cx="11.907" cy="9.094" rx="11.907" ry="9.094" transform="translate(32.937 196.356) rotate(-88.19)"/><ellipse class="c" cx="11.907" cy="9.094" rx="11.907" ry="9.094" transform="translate(33.392 181.806) rotate(-88.19)"/><path class="d" d="M644.364,552.268a42.208,42.208,0,0,1-3.229-5.1L665.151,544l-25.853-.62a43.666,43.666,0,0,1,.263-34.538l34.1,19.079-31.232-24.51a43.581,43.581,0,1,1,70.4,50.992,43.176,43.176,0,0,1,4.717,8.1l-31.521,15.127,33.425-10.054a43.632,43.632,0,0,1-8.346,40.717,43.581,43.581,0,1,1-68.465-2.159,43.581,43.581,0,0,1,1.7-53.864Z" transform="translate(-632.44 -482.747)"/><path class="e" d="M721.3,599.005a43.343,43.343,0,0,1-10.2,26.635,43.581,43.581,0,1,1-68.465-2.159C637.055,615.892,721.454,594.118,721.3,599.005Z" transform="translate(-632.44 -500.096)"/></g><g class="b" transform="translate(398.879 335.684)"><path class="c" d="M536.161,749.639a16.137,16.137,0,0,1-.314,2.728q-8.872-1.411-17.847-2.55v-.731a14.345,14.345,0,0,1,2.125-7.207c1.751-2.771,4.411-4.5,7.343-4.411s5.473,1.989,7.045,4.853a14.337,14.337,0,0,1,1.649,7.317Z" transform="translate(-486.08 -520.99)"/><ellipse class="c" cx="11.907" cy="9.094" rx="11.907" ry="9.094" transform="translate(32.008 225.459) rotate(-88.19)"/><ellipse class="c" cx="11.907" cy="9.094" rx="11.907" ry="9.094" transform="translate(32.472 210.909) rotate(-88.19)"/><ellipse class="c" cx="11.907" cy="9.094" rx="11.907" ry="9.094" transform="translate(32.927 196.359) rotate(-88.19)"/><ellipse class="c" cx="11.907" cy="9.094" rx="11.907" ry="9.094" transform="translate(33.382 181.809) rotate(-88.19)"/><path class="d" d="M492.364,552.268a42.208,42.208,0,0,1-3.229-5.1L513.151,544l-25.853-.62a43.666,43.666,0,0,1,.263-34.538l34.1,19.079-31.232-24.51a43.581,43.581,0,1,1,70.4,50.992,43.17,43.17,0,0,1,4.717,8.1l-31.521,15.127,33.425-10.054a43.632,43.632,0,0,1-8.346,40.717,43.581,43.581,0,1,1-68.465-2.159,43.581,43.581,0,0,1,1.7-53.864Z" transform="translate(-480.44 -482.747)"/><path class="e" d="M569.3,599.005a43.343,43.343,0,0,1-10.2,26.635,43.581,43.581,0,1,1-68.465-2.159C485.055,615.892,569.455,594.118,569.3,599.005Z" transform="translate(-480.44 -500.096)"/></g><g class="b" transform="translate(705.463 133.602)"><path class="c" d="M948.381,758.579a31.692,31.692,0,0,1-.62,5.167q-17.082-2.728-34.411-4.878v-1.4a27.62,27.62,0,0,1,4.1-13.878c3.4-5.329,8.5-8.669,14.133-8.5s10.538,3.833,13.6,9.348a27.646,27.646,0,0,1,3.2,14.142Z" transform="translate(-852.021 -318.551)"/><ellipse class="c" cx="22.929" cy="17.516" rx="22.929" ry="17.516" transform="translate(61.55 433.863) rotate(-88.19)"/><ellipse class="c" cx="22.929" cy="17.516" rx="22.929" ry="17.516" transform="translate(62.434 405.851) rotate(-88.19)"/><ellipse class="c" cx="22.929" cy="17.516" rx="22.929" ry="17.516" transform="translate(63.326 377.839) rotate(-88.19)"/><ellipse class="c" cx="22.929" cy="17.516" rx="22.929" ry="17.516" transform="translate(63.228 348.616) rotate(-88.282)"/><path class="d" d="M864.076,378.652a84.372,84.372,0,0,1-6.213-9.8l46.233-6.1-49.759-1.2a84.051,84.051,0,0,1,.493-66.493l65.652,36.722L860.362,284.6a83.9,83.9,0,1,1,135.527,98.21,83.891,83.891,0,0,1,9.085,15.595l-60.688,29.142,64.343-19.377a83.924,83.924,0,0,1-16,78.315,83.9,83.9,0,1,1-131.813-4.156,83.924,83.924,0,0,1,3.263-103.683Z" transform="translate(-841.186 -244.965)"/><path class="e" d="M1012.213,468.589a83.575,83.575,0,0,1-19.547,51.281,83.9,83.9,0,1,1-131.813-4.156C850.025,501.088,1012.51,459.181,1012.213,468.589Z" transform="translate(-841.192 -278.336)"/></g><path class="f" d="M157.82,580.136l8.915-.025H179.3L195.2,321.94,352.582,59.308l-6.841-7.343V33.37L175.531,315.855Z" transform="translate(-23.698 -5.01)"/><path class="e" d="M169.43,583.4h11.618L196.94,325.225,354.326,62.593l-6.841-7.343L185.144,321.29Z" transform="translate(-25.441 -8.295)"/><path class="f" d="M126.91,676.071l407.806,31.207.348.026,394.667-24.272.3-.017V666.349l-434.874-7.98-362.814-.348h-2.652l-.289,1.87Z" transform="translate(-19.057 -98.795)"/><path class="e" d="M126.91,676.071l407.806,31.207.348.026,394.667-24.272.3-.323V666.7h-.349l-394.964,13.19L132.341,658.02h-.059l-.714.467-2.167,1.4Z" transform="translate(-19.057 -98.795)"/><path class="e" d="M126.91,676.154,534.716,707.36V679.969l-403.148-21.4-2.167,1.4Z" transform="translate(-19.057 -98.877)"/><path class="f" d="M378.88,51.651,558.668,244.62,553.11,584.055l15.272,1.844.255.034h15.272L585.736,259.2,922.391,371.649l5.677,200.227,12.289,1.377,4.164.467-9.637-215.958L582.957,234.21,389.988,33.6H378.88Z" transform="translate(-56.888 -5.045)"/><path class="e" d="M620.65,291.7l1.385,6.246L958.69,410.4l5.677,200.227L976.657,612l-9.637-205.768Z" transform="translate(-93.187 -43.796)"/><path class="e" d="M378.88,51.651,558.668,244.62,553.11,584.055l15.272,1.844,4.164-352.386L378.88,33.6Z" transform="translate(-56.888 -5.045)"/><path class="f" d="M621.42,448.1,744.9,472.41l.042.008,216.264,42.6,9.9-3.969-.034-.7-.646-13.81-348.876-70.5Z" transform="translate(-93.303 -63.967)"/><path class="e" d="M766.76,480.61l216.264,42.6,9.9-3.969-.034-.7Z" transform="translate(-115.124 -72.159)"/><path class="f" d="M776.49,350.56l3.34,183.859,1.725,94.326,15.2-.51,9.569-.323L803.354,353.22l-6.595-2.193-1.445-.467Z" transform="translate(-116.585 -52.633)"/><path class="e" d="M776.65,350.51v.042l3.2,183.859,1.725,94.326,15.2-.51V350.51Z" transform="translate(-116.609 -52.625)"/><path class="c" d="M502.922,491.5a19.374,19.374,0,0,1,2.55,1.657,16.868,16.868,0,0,1,2.55,2.8c3.646,4.717,7.011,10.2,6.654,16.147a6.569,6.569,0,0,1-1.9,4.674c-1.5,1.283-3.663,1.343-5.635,1.343-2.142,0-4.394,0-6.246-1.1s-3.4-3.255-5.592-3.2a2.864,2.864,0,0,1-.935,0c-.756-.246-.909-1.241-1.4-1.87-.85-1.13-2.643-.85-3.977-.357s-2.813,1.232-4.13.663a4.291,4.291,0,0,1-1.793-1.793c-3.153-5.1-3.824-11.227-4.419-17.15-.365-3.6-3.153-15.892,4.538-13.1,3.4,1.224,6.578,3.671,9.671,5.465Z" transform="translate(-81.174 -146.62)"/><path class="c" d="M498.134,494.182A3.79,3.79,0,0,0,502.8,494a7.028,7.028,0,0,0,2.269-4.4c.85-.263,1.283.85,1.827,1.53.952,1.156,2.89,1.139,3.756,2.371.6.85.467,2.031.892,2.991.552,1.241,1.921,1.887,2.856,2.89a9.841,9.841,0,0,1,1.87,3.731l1.394,4.181a20.666,20.666,0,0,1,1.275,5.414,7.011,7.011,0,0,1-1.615,5.176c-1.87,2.014-4.938,2.227-7.649,2.167a9.841,9.841,0,0,1-2.686-.314c-2.405-.748-3.943-3.17-4.581-5.609s-.569-5-.943-7.5a29.378,29.378,0,0,0-2.125-7.122c-.748-1.768-2.8-4.4-2.771-6.28C497.182,493.222,497.624,493.783,498.134,494.182Z" transform="translate(-83.983 -148.085)"/><path class="g" d="M499.952,482.935a14.031,14.031,0,0,1-.688-3.731c0-2.55,1.164-4.946,2.337-7.224l-9.714,1.317c-1.173.161-2.482.4-3.145,1.377a3.4,3.4,0,0,0,0,3.136,16.026,16.026,0,0,1,1.156,3.034,15.151,15.151,0,0,0,.314,2.728,5.777,5.777,0,0,0,1.249,1.759,58.925,58.925,0,0,1,6.935,10.3c-.059-.1,5.856-4.683,5.618-6.179-.136-.85-1.844-1.87-2.388-2.686A13.673,13.673,0,0,1,499.952,482.935Z" transform="translate(-82.75 -145.447)"/><path class="f" d="M557.74,358.04v8.371l-143.346,27.96-7.436,4.5H381.3v-4.717l140.839-34.028Z" transform="translate(-57.251 -53.756)"/><path class="e" d="M557.74,367.89,414.394,395.85l-7.436,4.5H381.3l141.884-30.366Z" transform="translate(-57.251 -55.235)"/><path class="d" d="M460.362,724.707a11.108,11.108,0,0,0-13.513-2.872,3.561,3.561,0,0,0-1.241.969c-.85,1.19-.306,2.83-.23,4.3.2,3.586-2.66,6.5-5.227,9.009a12.357,12.357,0,0,0-3.4,4.606c-.62,1.827-.161,4.147,1.5,5.1a6.264,6.264,0,0,0,2.329.646,25.127,25.127,0,0,0,8.244.23,8.931,8.931,0,0,0,6.544-4.555,4.8,4.8,0,0,1,1.1-1.81c1.5-1.181,3.79.2,5.49-.637,1.4-.7,1.462-1.793,1.479-3.238C463.49,732.458,462.895,727.936,460.362,724.707Z" transform="translate(-74.962 -182.785)"/><path class="d" d="M485.33,723.446a27.981,27.981,0,0,1,1.326,8.694c.076,1.7.127,3.518-.79,4.955a6.77,6.77,0,0,1-4.428,2.55c-3.544.731-7.649.042-9.935-2.771-1.751-2.15-2.116-5.1-1.793-7.887.272-2.286.85-4.963-.79-6.586-.425-.433-.977-.739-1.368-1.207a4.049,4.049,0,0,1-.255-3.875,16.834,16.834,0,0,0,1.334-3.833c.068-.629,11.507.442,12.561.96,1.436.705,1.215,1.887,1.649,3.315C483.443,719.75,484.6,721.543,485.33,723.446Z" transform="translate(-79.533 -181.677)"/><path class="c" d="M481.305,581.116c2.244,1.453,3.11,4.309,3.459,6.96.96,7.266-.722,14.609-.85,21.943-.119,10.275,2.855,20.737.314,30.688-1.521,5.949-.229,12.748-1.657,18.756-.425,1.785-1.207,3.467-1.615,5.252-.85,3.867.042,7.912,1.241,11.694a12.079,12.079,0,0,1,.722,3.17,11.4,11.4,0,0,1-1.241,4.793l-5.1,12.06c-.569,1.351-2.813,1.572-4.249,1.751-2.7.323-5.72.552-7.87-1.122s-2.669-4.479-3-7.1a108.784,108.784,0,0,1-.85-15.153,12.486,12.486,0,0,0-.348-3.935c-.467-1.453-1.5-2.711-1.776-4.249-.357-1.989.654-3.943,1.028-5.949a17.923,17.923,0,0,0-.085-5.516c-.331-2.72-.714-5.439-1.147-8.142-.612-3.782.263-7.513.85-11.3.552-3.561-.153-7.19-.85-10.725a29.566,29.566,0,0,1-1.062,8.5c-.45,1.351-1.1,2.643-1.487,4.02-1.742,6.178,1.972,12.663,1.445,19.062-.246,2.992-1.419,5.949-1.088,8.9.229,2.159,1.232,4.139,1.921,6.2s1.045,4.411,0,6.332c-2.762,5.218-.7,12.314,1.776,17.669a23.85,23.85,0,0,1,1.309,2.94c.731,2.414.119,5.006.314,7.521a4.742,4.742,0,0,1-3.986-1.2c-.374-.391-.68-.85-1.045-1.258a10.375,10.375,0,0,0-3.552-2.218,4.666,4.666,0,0,0-2.55-.586,5.1,5.1,0,0,0-2.422,1.5,23.726,23.726,0,0,1-2.669,2.031,3.161,3.161,0,0,1-1.36.6,1.2,1.2,0,0,1-1.249-.637,1.512,1.512,0,0,1-.093-.442,67.256,67.256,0,0,1-.5-7.734c0-4.445-5.32-7.5-5.992-11.9-.535-3.544.459-7.156.127-10.725a52.161,52.161,0,0,1-.637-5.473c0-1.19.272-2.354.365-3.535a26.444,26.444,0,0,0-.059-3.935l-.264-4.1c-.255-4.054-.535-8.193-2.133-11.9a40.428,40.428,0,0,1-3.314-13.666c-.17-2.974-.06-5.949-.4-8.932-.306-2.694-.986-5.371-.79-8.074.161-2.091.85-4.113,1.011-6.2.331-4.02-1.2-7.929-2.4-11.779s-2.082-8.116-.51-11.83a3.884,3.884,0,0,1,1.088-1.581,4.742,4.742,0,0,1,2.006-.748,155.617,155.617,0,0,1,44.38-2.83,14.737,14.737,0,0,1,6.841,2.133Z" transform="translate(-73.409 -161.438)"/><circle class="g" cx="13.615" cy="13.615" r="13.615" transform="translate(346.035 302.185)"/><path class="g" d="M430.252,477a4.861,4.861,0,0,1,0,2.371,5.371,5.371,0,0,1-.892,1.5,38.415,38.415,0,0,1-4.36,4.742,7.9,7.9,0,0,0,4.071,4.02,23.635,23.635,0,0,0,5.618,1.606,5.888,5.888,0,0,0,5.507-.952l7.564-4.53a15.111,15.111,0,0,0,3.145-2.269,7.742,7.742,0,0,0,2.193-5.32,1.462,1.462,0,0,0-.272-1,1.785,1.785,0,0,0-1.037-.433,9.217,9.217,0,0,1-5.949-5.193,27.5,27.5,0,0,1-2.065-7.878l-8.065,4.249c-1.2.637-2.388,1.275-3.629,1.827-.79.357-2.388.654-2.949,1.377C428.06,472.448,429.972,475.4,430.252,477Z" transform="translate(-73.237 -144.197)"/><path class="c" d="M424.56,485.048a8.966,8.966,0,0,0-2.609,3.527c-.527,1.7,0,3.493.476,5.176a154.419,154.419,0,0,1,5.1,21.918c.714,5.1.977,10.275,1.326,15.433.714,10.521,1.751,27.3,3.136,37.751,5.1.229,10.071-1.258,15.128-1.8,9.45-1,19.181,1.292,28.436-.85-2.244-8.864-4.487-24-6.731-32.856a62.693,62.693,0,0,1-2.057-10.666c-.2-2.592-.076-5.193-.042-7.8.077-5.1-.2-10.2-.484-15.3-.323-5.949-.646-11.9-2.057-17.72a3.3,3.3,0,0,0-.986-1.946c-.85-.62-1.955-.4-2.966-.263a12.9,12.9,0,0,1-8.822-2.091c-1.122-.765-2.626-1.7-3.671-.85a3.654,3.654,0,0,0-.85,1.81,9.051,9.051,0,0,1-5.32,5.244,26.625,26.625,0,0,1-7.53,1.547,3.7,3.7,0,0,1-2.337-.263c-1.207-.739-1.292-3.4-2.813-3.578C427.552,481.317,425.461,484.189,424.56,485.048Z" transform="translate(-72.746 -146.106)"/><path class="d" d="M442,505.9c-3.136-3-4.513-7.351-6.8-11.048a24.593,24.593,0,0,0-5.872-6.459,17.516,17.516,0,0,1-3.2-2.711c-.807-.994-1.419-2.32-2.643-2.7a3.2,3.2,0,0,0-2.864.79,28.187,28.187,0,0,0-2.125,2.261c-3.6,3.731-9.935,4.249-12.79,8.567a7.019,7.019,0,0,0-1.521,3.187,24.7,24.7,0,0,0,4.538,17.762,6.033,6.033,0,0,0,3.144,2.55,9.841,9.841,0,0,0,.612,4.674,124.989,124.989,0,0,0,5.788,15.765,38.133,38.133,0,0,0-1.139,6.11c-.595,5.193-.043,10.462-.6,15.663-.459,4.249-1.7,8.388-1.742,12.646,0,.68.059,1.487.646,1.836a1.954,1.954,0,0,0,1.011.212l10.453.314c6.068.179,12.2.357,18.17-.765a7.563,7.563,0,0,0,2.286-.722c2.023-1.13,2.694-3.68,3.017-5.949a51.846,51.846,0,0,0,.5-8.89c1.266,4,2.771,8.142,6.595,9.875,2.023.918,4.334.85,6.552.79a123.365,123.365,0,0,0,14.269-1.47A1.878,1.878,0,0,0,480.375,566l.051-4.64c.1-9.425-2.235-18.433-3.145-27.816-.289-2.958-.263-5.949-.986-8.847-.3-1.215-.731-2.405-.994-3.629a25.938,25.938,0,0,1-.425-3.629l-.663-9.348c-.314-4.326-.765-8.5-1.1-12.816a62.037,62.037,0,0,0-1.819-12.459c-.739-2.55-2.278-5.439-4.938-5.754a10.178,10.178,0,0,0-4.147.892,16.759,16.759,0,0,1-10.2-.042,14.364,14.364,0,0,0-3.178-.85,3.119,3.119,0,0,0-2.907,1.207,4.36,4.36,0,0,0-.45,2.142C445.08,488.9,444.341,497.649,442,505.9Z" transform="translate(-70.082 -146.206)"/><path class="c" d="M428.463,509.093c-3.918-4.13-7.938-8.337-12.986-10.963a10.372,10.372,0,0,0-6.45-1.428c-2.2.391-4.249,2.3-4.147,4.538.068,1.385.909,2.609,1.173,3.969.306,1.53-.136,3.161.34,4.64a7.854,7.854,0,0,0,1.7,2.609l6.017,7.13c2.55,2.974,5.1,5.991,8.38,8.048s7.53,3.017,11.133,1.555a13.683,13.683,0,0,0,6.1-5.6c1.5-2.38,2.55-4.98,3.952-7.436a36.925,36.925,0,0,1,8.5-10.309c-1.768-.459-3.986-1.1-5.1-2.55a8.424,8.424,0,0,1-.807-1.462l-1.377-2.975a3.4,3.4,0,0,0-2.55.96,21.368,21.368,0,0,1-1.9,1.929c-1.2.9-2.822,1.147-3.909,2.176a10.355,10.355,0,0,0-1.139,1.428,9.536,9.536,0,0,1-6.935,3.739Z" transform="translate(-70.216 -149.143)"/><path class="g" d="M459.3,486.122c2.949-5.38,2.813-11.83,3.654-17.907a8.175,8.175,0,0,1,1.623-4.445c1.7-1.921,4.7-1.946,7.266-1.7.756.085,1.7.442,1.657,1.2a1.529,1.529,0,0,1-.382.722,20.218,20.218,0,0,0-4.2,11.15c1.334.926,3.4-.977,4.683,0,.85.714.459,2.125-.051,3.145q-1.776,3.544-3.663,7.037a22.6,22.6,0,0,1-3.884,5.6c-1.079,1.037-2.346,1.853-3.442,2.872-2.55,2.388-4.088,5.762-6.722,8.091a1.377,1.377,0,0,1-.85.433,1.428,1.428,0,0,1-.892-.4,12.884,12.884,0,0,1-3.212-3.884c-1-1.853-.85-2.4.731-3.705C454.577,491.994,457.458,489.487,459.3,486.122Z" transform="translate(-77.029 -143.943)"/><path class="d" d="M424.014,504.992c.51.314,1.139.671,1.7.408a1.768,1.768,0,0,0,.569-.552,20,20,0,0,0,2.414-4.2,1.614,1.614,0,0,0,.178-.68c0-.544-.484-.943-.935-1.258a34.639,34.639,0,0,0-7.725-3.671,15.94,15.94,0,0,0-6.969-1.377,6.646,6.646,0,0,0-4.649,2.363c-1.7,2.184,1.147,2.847,2.932,3.637C415.66,501.542,420.13,502.63,424.014,504.992Z" transform="translate(-70.696 -148.697)"/><path class="e" d="M423.678,522.638a1.249,1.249,0,0,0,.357,1.071c.246-1.207-.077-2.482.178-3.7.374-1.827,2.15-3.2,2.3-5.04C423.261,514.335,423.7,520.666,423.678,522.638Z" transform="translate(-73.037 -151.895)"/><path class="h" d="M582.621,358.04v8.371l-34.555,2.1-1.045-8.38Z" transform="translate(-82.132 -53.756)"/><path class="c" d="M419.126,458.178c2.159-1.759.909-5.448,2.371-7.81a7.588,7.588,0,0,1,3.7-2.55,16.819,16.819,0,0,1,5.4-1.5,6.263,6.263,0,0,1,5.1,1.878c.552.629.926,1.394,1.445,2.048a5.524,5.524,0,0,0,5.354,1.853c1.13-.255,2.3-1.113,2.227-2.269a3.2,3.2,0,0,0-1.02-1.819l-2.431-2.694c-2.762-3.059-5.83-6.306-9.884-7.071-2.822-.535-5.711.221-8.431,1.13-1.1.365-2.329.909-2.635,2.023-.2.765.1,1.6-.077,2.371-.348,1.538-2.32,2.057-3.238,3.348s-.637,2.822-.9,4.249-1.028,2.822-1.122,4.3c-.06.892.391,2.55,1.394,2.873S418.506,457.115,419.126,458.178Z" transform="translate(-71.732 -140.355)"/><path class="i" d="M443.764,447.376a25.5,25.5,0,0,0-4.521-10.334,18.11,18.11,0,0,0-8.048-6.391,11.524,11.524,0,0,0-10.02.79,14.549,14.549,0,0,0-5.006,6.314c-2.2,4.742-3.017,10.538-.459,15.094,1.02-1.241,2.771-.68,4.317-1.13,1.938-.552,3.578-1.844,5.422-2.652C431.016,446.611,437.815,448.6,443.764,447.376Z" transform="translate(-71.604 -139.123)"/><path class="e" d="M417.478,449.348c-.2-1.53-.323-3.306.765-4.394a.552.552,0,0,1,.45-.2.586.586,0,0,1,.349.306,19.02,19.02,0,0,1,1.6,3.127,3.246,3.246,0,0,0-3.4,1.317" transform="translate(-72.072 -141.358)"/><path class="e" d="M440.819,444.334l-.306-3.034a1.385,1.385,0,0,1,.06-.748.96.96,0,0,1,1.241-.34,2.549,2.549,0,0,1,.994.994,17.845,17.845,0,0,1,1.751,3.459,10.283,10.283,0,0,0-4.139.051" transform="translate(-75.552 -140.662)"/><path class="e" d="M432.274,502.21v6.935l-5.856.391h-30.8V502.21Z" transform="translate(-59.401 -75.402)"/><path class="f" d="M415.072,480.937v7.326H378.417L281.04,366.282V360.52h20.414Z" transform="translate(-42.198 -54.128)"/><path class="e" d="M415.072,480.937v7.326H378.417L281.04,366.282V360.52h20.414Z" transform="translate(-42.198 -54.128)"/><path class="e" d="M415.072,480.937v7.326H378.417L281.04,366.282V360.52l97.9,120.417Z" transform="translate(-42.198 -54.128)"/><path class="d" d="M305.356,732.814a2.55,2.55,0,0,1-2.227,3c-2.363.8-4.87,1.589-6.544,3.4s-2.006,5.167,0,6.637a6.451,6.451,0,0,0,3.4.926c3.85.263,7.861.212,11.354-1.419,2.5-1.156,4.853-3.127,7.6-2.949,1.419.085,2.932.748,4.2.1s1.623-2.448,1.632-3.952a29.259,29.259,0,0,0-1.4-9.255c-.128-.408-5.533-.722-6.178-.85l-6.552-.85c-1.241-.161-3.918-1.1-4.9-.06S305.356,731.582,305.356,732.814Z" transform="translate(-53.75 -183.745)"/><path class="d" d="M353.12,706.64a20.523,20.523,0,0,0,1.343,4.453c.909,2.312,2.074,4.768,4.3,5.89a7.676,7.676,0,0,0,6.561-.315,5.4,5.4,0,0,0,2.184-1.657,6.578,6.578,0,0,0,.85-3.816c0-3.289-.2-6.688-1.7-9.612-1.292-2.55-3.544-4.742-3.578-7.564l-7.742,1.5a2.211,2.211,0,0,0-1.139.451,1.962,1.962,0,0,0-.493.926A25.3,25.3,0,0,0,353.12,706.64Z" transform="translate(-62.411 -178.784)"/><path class="d" d="M244.344,611.39c-.323,2.737-.187,5.669,1.241,8.031s4.436,3.926,7.037,2.983a1.028,1.028,0,0,0,.637-.484,1.2,1.2,0,0,0-.11-.85,12.544,12.544,0,0,1,.263-9.45c.17-.391.535-.85.935-.7a.85.85,0,0,1,.382.391,4.445,4.445,0,0,1,.595,2.346,8.722,8.722,0,0,0-.068,2.252c.161.731.943,1.419,1.623,1.1a1.7,1.7,0,0,0,.773-1.1c1.9-5.482,1.037-11.473.17-17.21a.9.9,0,0,0-1.011-.943c-4.011-.4-6.2-1.36-8.5,2.371C246.342,603.283,244.344,607.609,244.344,611.39Z" transform="translate(-46.092 -164.27)"/><path class="c" d="M299.115,597.029c-1.19,4.946-2.388,9.952-2.465,15.034a69.069,69.069,0,0,0,.714,9.459l.892,7.36c.306,2.482.6,4.955,1.037,7.411a19.679,19.679,0,0,1,.45,3.85,20.617,20.617,0,0,1-.6,3.782,44.2,44.2,0,0,0-.892,7.9c-.093,4.249.433,8.5.765,12.748a141.966,141.966,0,0,1-.3,25.428,9.535,9.535,0,0,0,1.394,6.552,8.43,8.43,0,0,1,1.232,2.023c.637,1.946-.85,3.892-1.232,5.89a5.949,5.949,0,0,0,4.946,6.8c6.8.807,13.785.442,19.912,3.552.646-1.887-.765-4.028-.119-5.949.408-1.19,1.53-1.963,2.295-2.966a8.635,8.635,0,0,0,1.462-5.184,18.943,18.943,0,0,0-1.258-7.028c-.722-1.87-1.759-3.714-1.7-5.719,0-.986.348-2.023-.051-2.932a4.583,4.583,0,0,0-1.1-1.368,17.277,17.277,0,0,1-4.445-10.071,46.387,46.387,0,0,1,.357-11.167c.416-3.518.977-7.232,3.212-9.977a64.02,64.02,0,0,1,1.793-24.858c.221-.748.569-1.615,1.334-1.793a1.9,1.9,0,0,1,1.632.646,11.14,11.14,0,0,1,2.55,4.793c.637,1.878,1.283,3.884.8,5.8-.2.85-.612,1.6-.85,2.414a7.156,7.156,0,0,0,.255,4.989,4.793,4.793,0,0,1,.612,1.878,5.2,5.2,0,0,1-.51,1.632,7.513,7.513,0,0,0,.705,6.076,22,22,0,0,0,3.969,4.87,17.847,17.847,0,0,0,.552,9.824,1.241,1.241,0,0,1,.11.943c-.153.323-.544.442-.85.671-.85.7-.323,2.014.246,2.924a67.04,67.04,0,0,0,5.159,7.156c1.7,2.031,1.547,5.949,4.079,6.68a7.651,7.651,0,0,0,3.229,0c2.5-.383,5.286-1.1,6.51-3.315.5-.909.705-2.014,1.487-2.694s1.793-.8,2.227-1.615-.051-1.887.093-2.83.969-1.7,1.232-2.694c.629-2.295-2.048-4.181-2.414-6.527-.527-3.4,3.756-5.949,3.578-9.349-.374-7.385-.612-14.8-.994-22.19a160,160,0,0,1-.2-19.878c.3-4.122.85-8.439-.663-12.272-2.176-5.405-8.176-8.439-13.98-9.017s-11.592.8-17.346,1.7a109.63,109.63,0,0,1-28.853.6Z" transform="translate(-53.967 -163.855)"/><circle class="j" cx="13.615" cy="13.615" r="13.615" transform="translate(248.785 324.715)"/><path class="j" d="M312.329,503.357a5.8,5.8,0,0,1-5.55,3.51c-.493,2.04.688,4.1,2.04,5.7a24.2,24.2,0,0,0,23.167,7.946,11.432,11.432,0,0,0,4.564-1.9,10.122,10.122,0,0,0,3.484-6.034,30,30,0,0,0,.331-7.1,1.836,1.836,0,0,0-.374-1.309,1.87,1.87,0,0,0-1.19-.391c-2.873-.255-5.873-.365-8.4-1.776s-4.317-4.6-3.1-7.215c-.2.408-5.159.6-5.813.688-2.048.289-4.1.612-6.136.986a11.156,11.156,0,0,0-2.881.544c-1.232.637-.773.323-.484,1.479C312.423,500.255,313.06,501.521,312.329,503.357Z" transform="translate(-55.471 -148.871)"/><path class="c" d="M313.94,512.859a22.55,22.55,0,0,1-5.448-.6,7.649,7.649,0,0,1-4.47-2.983c-.629-.952-1.037-2.15-2.04-2.686-1.64-.85-3.51.586-4.819,1.9a17.508,17.508,0,0,1-4.1,3.3c-1.819.96-3.943,1.3-5.66,2.431a14.227,14.227,0,0,0-3.4,3.671l-12.043,16.4c-4.836,6.595-9.043,13.674-13.351,20.635-3.731,6.026-5.686,12.96-8.5,19.462a2.176,2.176,0,0,0-.263,1.309c.1.442.637.8,1.011.544-1.266,1.258-.153,3.4-.45,5.167a6.34,6.34,0,0,1-2.023,3.17,15.978,15.978,0,0,1,5.609.263,17.191,17.191,0,0,1,5.3,2.55c1.028-.161.935-1.989,1.7-2.669.459-.4,1.139-.348,1.742-.467,2.269-.442,3.17-3.17,4.912-4.708,1.453-1.283,3.51-1.7,5.048-2.906,2.5-1.963,3.034-5.456,4.343-8.354,1.113-2.456,2.864-4.6,3.841-7.113a30.642,30.642,0,0,1,1.853-4.9c1.453-2.431,4.19-3.722,6.8-4.887A11.259,11.259,0,0,1,294.716,550c-.094,3.952-.595,7.844.263,11.7.3,1.36.714,2.686,1.071,4.037a76.016,76.016,0,0,1,2.082,18.7,56.9,56.9,0,0,1,11.9-1.428c3.153-.093,6.3.314,9.451.255,3.739-.068,7.436-.79,11.176-1.045s7.649,0,10.955,1.7a104.07,104.07,0,0,1,.45-16.147l.9-8.448a51.9,51.9,0,0,1,1.13-7.292c.493-1.938,1.207-3.807,1.751-5.736,1.912-6.8,1.564-14.057,1.2-21.136A26.641,26.641,0,0,0,343.8,514.7a28.289,28.289,0,0,0-2.04-3.468,20.082,20.082,0,0,0-17.558-8.244,3.554,3.554,0,0,0-1.258.272,4.19,4.19,0,0,0-1.606,1.912A20.821,20.821,0,0,1,313.94,512.859Z" transform="translate(-46.721 -150.096)"/><path class="c" d="M305.024,487.47c.382-.85,1.411-1.164,2.04-1.844,1.207-1.292.663-3.357.85-5.1a7.325,7.325,0,0,1,4.844-5.592,15.654,15.654,0,0,1,7.649-.484,7.4,7.4,0,0,1,3.45,1.147c.442.323.85.739,1.266,1.037a3.4,3.4,0,0,0,4.623-1.079c-3.009-3.62-6.34-7.445-10.912-8.558a22.377,22.377,0,0,0-4.768-.45,15.482,15.482,0,0,0-6.255.731,10.426,10.426,0,0,0-5.49,6.34,30.822,30.822,0,0,0-1.334,8.5,32.017,32.017,0,0,0,0,5.779,15.978,15.978,0,0,0,2.839,7.283,2.2,2.2,0,0,0,.85.79C308.551,497.669,304.709,488.176,305.024,487.47Z" transform="translate(-54.598 -144.628)"/><path class="i" d="M328.8,471.914c-.467-4-3.323-7.309-6.357-9.969a23.44,23.44,0,0,0-8.541-5.142,11.412,11.412,0,0,0-9.637,1.173,14.807,14.807,0,0,0-4.691,6.45,20.3,20.3,0,0,0-2.048,9.348,10.078,10.078,0,0,0,4.564,8.091,8.583,8.583,0,0,1,4.419-2.847,216.368,216.368,0,0,1,22.292-7.1Z" transform="translate(-54.098 -143.086)"/><path class="e" d="M303.837,472.72c.272,0,.45.28.586.51a21.539,21.539,0,0,1,1.776,3.4c-.994.212-2.7.45-3.2-.425C302.74,475.762,303.055,472.677,303.837,472.72Z" transform="translate(-54.907 -145.558)"/><path class="e" d="M326.712,469.719c-.2.2-.442-.2-.442-.493v-3.3a.485.485,0,0,1,.06-.263.4.4,0,0,1,.28-.136c.688-.077,1.258.51,1.7,1.071a17.95,17.95,0,0,1,1.742,2.9l-3.595-.111" transform="translate(-58.414 -144.477)"/><path class="c" d="M374.77,530.851a22.234,22.234,0,0,1,2.5-2.048c2.354-1.572,5.2-2.193,7.844-3.2s5.329-2.626,6.357-5.261a12.493,12.493,0,0,0,.493-5.1,5.1,5.1,0,0,0-.374-2.1,4.173,4.173,0,0,0-1.343-1.462c-3.586-2.652-8.4-2.864-12.85-2.592A80.543,80.543,0,0,0,349,516.182a2.465,2.465,0,0,0-1.19.85,2.432,2.432,0,0,0-.229,1.181,19.547,19.547,0,0,0,.96,7.4c1.173,3.026,3.586,5.465,4.6,8.55.459,1.385.612,2.856,1.011,4.249a5.949,5.949,0,0,0,2.388,3.552c3.357,2.006,6.527-.688,8.855-2.779Z" transform="translate(-61.608 -151.005)"/><path class="d" d="M322.47,541.393l-4.309-9.4a32.9,32.9,0,0,1-1.632-4.02c-.493-1.64-.731-3.34-1.19-4.989-1.513-5.49-5.329-10.062-7.19-15.442a2.931,2.931,0,0,0-.7-1.3,2.269,2.269,0,0,0-1.9-.34c-2.6.45-4.632,2.431-7.011,3.552-1.1.51-2.295.85-3.4,1.436a4.249,4.249,0,0,0-2.278,2.711c-.263,1.3.382,2.55.926,3.816,2.312,5.218,2.839,11.048,2.94,16.759.076,3.841-.119,7.963-2.388,11.048-4.36,5.949-1.572,14.686.059,21.884.2.85.425,1.768.561,2.669a24.531,24.531,0,0,1,.2,3.4c0,3.816-.212,7.751-1.81,11.21a12.542,12.542,0,0,0,5.1,1.445q7.4.943,14.864,1.326a16.2,16.2,0,0,0,4.666-.238,8.5,8.5,0,0,0,6.28-8.329c.272,2.354.773,4.912,2.482,6.544s4.2,1.878,6.518,2.006a121.187,121.187,0,0,0,19.632-.552,3.4,3.4,0,0,0,1.207-.28c1.258-.629,1.326-2.363,1.224-3.756-.187-2.609-.382-5.218-.7-7.81a31.959,31.959,0,0,1-.408-5,28.747,28.747,0,0,1,.85-5.1c1.139-5.3,2.04-10.717,1.657-16.147a27.254,27.254,0,0,1-.161-3.986c.221-3,1.8-5.856,1.5-8.839-.85-8.771-1.538-17.771-3.986-26.235-.442-1.513-1-3.136-2.32-4-1.7-1.139-4.088-.544-6.034-1.266a15.093,15.093,0,0,1-2.592-1.538,11.9,11.9,0,0,0-5.856-1.8,4.971,4.971,0,0,0-4.249,1.547,6.171,6.171,0,0,0-.85,2.32c-1.232,5.184-2.677,10.309-4.122,15.433l-1.385,4.912-3.714,13.19C322.6,539.633,322.844,540.067,322.47,541.393Z" transform="translate(-53.271 -149.777)"/><path class="f" d="M339.464,400.25l82.207,86.388v7.326H385.016L323.24,413.338" transform="translate(-48.534 -60.093)"/><path class="e" d="M339.464,400.25l82.207,86.388v7.326H385.016L323.24,413.338" transform="translate(-48.534 -60.093)"/><path class="e" d="M324.549,414.31l.263.094,60.731,74.346h36.128v7.326H385.016L323.24,415.449Z" transform="translate(-48.534 -62.204)"/><path class="d" d="M345.7,503.583c-2.975,1.3-6.28,2.966-7.173,6.094a3.051,3.051,0,0,0,3.009,4.088,10.2,10.2,0,0,0,4.088-.748l17.55-5.8c.476-.153,1.02-.382,1.139-.85a1.462,1.462,0,0,0-.17-.85c-.544-1.326-1.079-4.037-2.218-4.963-.935-.748-2.788-.484-3.918-.467C353.658,500.124,349.57,501.883,345.7,503.583Z" transform="translate(-60.23 -149.658)"/><path class="c" d="M364.748,507.6a28.224,28.224,0,0,1,8.711,1.351,15.518,15.518,0,0,1,7.215,4.929,5.4,5.4,0,0,1,1.139,2.227c.17.85,2.941,1.36,2.329,1.938,1.861-.3,1.419.578,3.306.561s3.926-.5,5.057-2.006a6.57,6.57,0,0,0,.994-4.156,7.079,7.079,0,0,0-.561-2.941c-.85-1.785-2.8-2.745-4.606-3.569l-15.179-6.943a10.078,10.078,0,0,0-2.8-.994,10.485,10.485,0,0,0-2.473.06l-6.875.79a10.309,10.309,0,0,1,4.7,9.068" transform="translate(-63.628 -149.345)"/></g></svg>