<svg xmlns="http://www.w3.org/2000/svg" width="155.25" height="192" viewBox="0 0 155.25 192"><defs><style>.a{fill:#1b1d1f;}</style></defs><g transform="translate(-49)"><path class="a" d="M198.625,0h-132A5.625,5.625,0,0,0,61,5.625v24.75H54.625a5.625,5.625,0,0,0,0,11.25H61v18.75H54.625a5.625,5.625,0,0,0,0,11.25H61v18.75H54.625a5.625,5.625,0,1,0,0,11.25H61v18.75H54.625a5.625,5.625,0,0,0,0,11.25H61v18.75H54.625a5.625,5.625,0,1,0,0,11.25H61v24.75A5.625,5.625,0,0,0,66.625,192h132a5.625,5.625,0,0,0,5.625-5.625V5.625A5.625,5.625,0,0,0,198.625,0ZM193,180.75H72.25V161.625h6.375a5.625,5.625,0,1,0,0-11.25H72.25v-18.75h6.375a5.625,5.625,0,0,0,0-11.25H72.25v-18.75h6.375a5.625,5.625,0,1,0,0-11.25H72.25V71.625h6.375a5.625,5.625,0,0,0,0-11.25H72.25V41.625h6.375a5.625,5.625,0,0,0,0-11.25H72.25V11.25H193Z" transform="translate(0 0)"/><path class="a" d="M177,233.007a6.458,6.458,0,0,0,12.916,0c0-17.142,10.467-34.873,27.984-34.873s27.984,17.731,27.984,34.873a6.458,6.458,0,0,0,12.916,0c0-16.41-7.49-33.407-21.208-42.087a30.567,30.567,0,1,0-39.385,0C184.491,199.6,177,216.6,177,233.007Zm23.248-65.44A17.652,17.652,0,1,1,217.9,185.219,17.672,17.672,0,0,1,200.248,167.567Z" transform="translate(-86.029 -92.233)"/></g></svg>