<svg xmlns="http://www.w3.org/2000/svg" width="192.085" height="192" viewBox="0 0 192.085 192"><defs><style>.a{fill:#1b1d1f;}</style></defs><g transform="translate(0.002 -0.113)"><path class="a" d="M180.393,137.472c-8.913-.884-13.033,11.225-15.442,19.847a258.544,258.544,0,0,0-6.133,31.206,29.933,29.933,0,0,1-2.635,6.832c-.147-.24-.3-.476-.467-.708-2.436-3.392-7.6-6.866-18.391-4.157-8.265,2.076-18.99,7.6-31.876,16.407l-.193.138a38.254,38.254,0,0,0-9.061,9.513,38.241,38.241,0,0,0-9.061-9.513l-.193-.138c-12.886-8.811-23.611-14.331-31.876-16.407-10.787-2.709-15.956.765-18.391,4.157-.2.283-.387.576-.561.871a29.031,29.031,0,0,1-2.859-7.107c-1.676-11.53-5.281-33.712-10.95-43.839-3.574-6.385-7.74-7.388-10.608-7.1C-.768,138.708-.278,161.78.168,174.952c.416,12.292,1.724,23.264,1.779,23.725l.015.116c2.121,14.994,16.461,28.578,30.329,41.715,11.8,11.179,24,22.738,24,31.539v5.614h79.5v-5.614c0-8.8,12.2-20.36,24-31.539,13.868-13.137,28.208-26.721,30.329-41.715l.015-.116c.055-.461,1.363-11.433,1.779-23.725.462-13.653.783-36.258-11.528-37.479ZM90.8,266.433H66.808c-2.983-11.533-14.586-22.526-26.772-34.069-12.447-11.791-25.317-23.982-26.926-35.084-.105-.892-1.349-11.668-1.714-23.2-.431-13.6.585-20.221,1.462-23.334,5.64,11.185,8.623,36.092,8.632,36.13a40.208,40.208,0,0,0,15.836,26.654l26.618,19.9,6.744-8.987-21.737-16.25c-2.785-2.082-3.741-6.152-3.131-7,.144-.2,1.854-.975,6.5.192,4.781,1.2,13.545,4.729,28.162,14.712a26.1,26.1,0,0,1,10.313,16.068Zm89.9-92.353c-.365,11.532-1.609,22.309-1.714,23.2-1.609,11.1-14.479,23.292-26.926,35.084-12.186,11.543-23.789,22.536-26.772,34.069h-23.31V231.024l-.012-.06a25.825,25.825,0,0,1,9.95-14.87c14.617-9.983,23.381-13.511,28.162-14.712,4.646-1.167,6.356-.393,6.5-.192.61.85-.347,4.92-3.131,7L121.7,224.442l6.744,8.987,26.618-19.9A40.022,40.022,0,0,0,170.6,186.876c.008-.037,3.152-25.262,8.632-36.13.877,3.112,1.893,9.73,1.462,23.334Z" transform="translate(0 -85.548)"/><path class="a" d="M90.123,40.073c0,21.89,16.027,33.191,34.586,46.276a277.541,277.541,0,0,1,23.808,18.162l3.672,3.213,3.676-3.209A317.717,317.717,0,0,1,181.45,84.8c18.334-13.081,32.815-23.413,32.815-44.728,0-22.034-17.613-39.96-39.262-39.96a31.52,31.52,0,0,0-22.809,10.255A31.52,31.52,0,0,0,129.385.113c-21.649,0-39.262,17.926-39.262,39.96ZM147.43,22.551l4.763,7.725,4.763-7.725C161.253,15.583,168,11.423,175,11.423c15.464,0,28.044,12.853,28.044,28.651,0,14.806-9.115,21.967-28.077,35.5-6.895,4.919-14.591,10.411-22.782,17.263-7.3-6.059-14.547-11.167-21.05-15.752-17.3-12.2-29.8-21.009-29.8-37.008,0-15.8,12.581-28.651,28.044-28.651,7,0,13.749,4.16,18.046,11.128Z" transform="translate(-56.149)"/><path class="a" d="M222.433,124.419h11.31v-11.31h11.31V101.8h-11.31V90.113h-11.31V101.8h-11.31v11.31h11.31Z" transform="translate(-132.042 -56.289)"/></g></svg>