<svg xmlns="http://www.w3.org/2000/svg" width="192" height="192" viewBox="0 0 192 192"><defs><style>.a{fill:#1b1d1f;}</style></defs><path class="a" d="M211.742,83.049a22.647,22.647,0,0,0-31.136.1L167.615,95.693v-74.2C167.615,9.64,157.633,0,145.361,0s-22.254,9.64-22.254,21.489v74.2L110.315,83.341A23.059,23.059,0,0,0,94.4,77.005h-.076a22.171,22.171,0,0,0-15.558,6.251,20.811,20.811,0,0,0,.107,30.066l53.561,51.724a18.77,18.77,0,0,0,25.854,0l53.366-51.533a21.488,21.488,0,0,0,6.561-15.442,20.673,20.673,0,0,0-6.474-15.023Z" transform="translate(-49.351)"/><path class="a" d="M468.734,490.188h-7.641a5.094,5.094,0,0,1,0-10.187h7.641a5.094,5.094,0,0,1,0,10.188Z" transform="translate(-281.828 -298.188)"/><path class="a" d="M12.734,490.188H5.094a5.094,5.094,0,0,1,0-10.187h7.641a5.094,5.094,0,0,1,0,10.188Z" transform="translate(0 -298.188)"/><path class="a" d="M214.651,490.188H86.412c-3.541,0-6.412-2.281-6.412-5.094S82.871,480,86.412,480H214.651c3.541,0,6.412,2.281,6.412,5.094S218.192,490.188,214.651,490.188Z" transform="translate(-54.531 -298.188)"/></svg>