<svg xmlns="http://www.w3.org/2000/svg" width="267.609" height="192" viewBox="0 0 267.609 192"><defs><style>.a{fill:#1b1d1f;}</style></defs><g transform="translate(294 33.697)"><g transform="translate(-294 -33.697)"><path class="a" d="M262.421,74.28H244.785V68.263a5.187,5.187,0,0,0-3.735-5.187,146.114,146.114,0,0,0-37.4-4.772c-20.749,0-49.019,4.668-69.924,25.936C112.978,62.765,84.5,58.3,63.8,58.3a146.114,146.114,0,0,0-37.4,4.772,5.187,5.187,0,0,0-3.735,5.187v5.965H5.187A5.187,5.187,0,0,0,0,79.416V245.1a5.175,5.175,0,0,0,7.729,4.513c.519-.259,52.391-28.633,124.8-10.374h1.245a5.192,5.192,0,0,0,1.245,0c72.621-18.415,124.493,9.908,124.8,10.374a5.187,5.187,0,0,0,7.781-4.461V79.468A5.187,5.187,0,0,0,262.421,74.28ZM10.374,236.848V84.655h12.4v130.1a5.188,5.188,0,0,0,5.965,5.187,227,227,0,0,1,32.42-2.594,134.553,134.553,0,0,1,44.3,6.691A190.7,190.7,0,0,0,10.374,236.848Zm50.783-29.827a228.231,228.231,0,0,0-28.218,1.816V72.361A143.066,143.066,0,0,1,63.7,68.938c19.4,0,46.166,4.461,64.736,25.417l.156,129.214C117.8,216.514,96.742,207.021,61.157,207.021ZM138.966,94.355C157.536,73.606,184.3,68.938,203.7,68.938a143.692,143.692,0,0,1,30.76,3.424V208.837a228.16,228.16,0,0,0-28.063-1.867c-35.377,0-56.489,9.493-67.434,16.547ZM257.182,236.848a190.733,190.733,0,0,0-95.289-12.812,134.873,134.873,0,0,1,44.506-6.691,226.93,226.93,0,0,1,32.628,2.542,5.187,5.187,0,0,0,5.965-5.187V84.655h12.4Z" transform="translate(0 -58.303)"/></g></g></svg>