<svg xmlns="http://www.w3.org/2000/svg" width="192" height="192" viewBox="0 0 192 192"><defs><style>.a{fill:#1b1d1f;}</style></defs><circle class="a" cx="8.604" cy="8.604" r="8.604" transform="translate(87.396 133.742)"/><path class="a" d="M96,0a96,96,0,1,0,96,96A95.948,95.948,0,0,0,96,0Zm0,177a81,81,0,1,1,81-81A80.956,80.956,0,0,1,96,177Z"/><path class="a" d="M203.534,128.5A27.565,27.565,0,0,0,176,156.034a6.883,6.883,0,0,0,13.767,0A13.767,13.767,0,1,1,203.534,169.8a6.883,6.883,0,0,0-6.883,6.883v17.209a6.883,6.883,0,1,0,13.767,0V182.7a27.536,27.536,0,0,0-6.883-54.2Z" transform="translate(-107.534 -77.558)"/></svg>