<svg xmlns="http://www.w3.org/2000/svg" width="524" height="524" viewBox="0 0 524 524"><defs><style>.a{fill:#00d5ff;stroke:#000;stroke-width:12px;}</style></defs><g transform="translate(6 6)"><path class="a" d="M256,0C114.844,0,0,114.844,0,256S114.844,512,256,512,512,397.156,512,256,397.156,0,256,0ZM453.914,381.557Q448.17,390.578,441.638,399L354.3,337.849A128.623,128.623,0,0,1,309.6,372.082l36.579,100.51c-6.535,2.73-13.2,5.2-20.022,7.342L289.561,379.385a124.338,124.338,0,0,1-67.122,0L185.845,479.934c-6.818-2.141-13.487-4.612-20.022-7.342L202.4,372.082a128.626,128.626,0,0,1-44.707-34.233L70.362,399q-6.519-8.439-12.276-17.447l87.434-61.224a126.916,126.916,0,0,1-16.979-53.667H21.874c-.161-3.561-.54-7.066-.54-10.667s.379-7.1.54-10.667H128.54a126.925,126.925,0,0,1,16.979-53.667L58.085,130.441q5.743-9.021,12.276-17.447l87.333,61.155A128.623,128.623,0,0,1,202.4,139.916L165.822,39.406c6.535-2.73,13.2-5.2,20.022-7.342l36.594,100.549a124.367,124.367,0,0,1,67.123,0L326.155,32.066c6.818,2.141,13.487,4.612,20.022,7.342L309.6,139.918A128.626,128.626,0,0,1,354.3,174.151L441.638,113q6.519,8.439,12.276,17.447L366.48,191.667a126.916,126.916,0,0,1,16.979,53.667H490.126c.161,3.561.54,7.066.54,10.667s-.379,7.105-.54,10.667H383.46a126.925,126.925,0,0,1-16.979,53.667Z"/></g></svg>