<svg xmlns="http://www.w3.org/2000/svg" width="258.691" height="258.692" viewBox="0 0 258.691 258.692"><defs><style>.a{fill:#fff;}</style></defs><g transform="translate(-0.001)"><g transform="translate(0.001)"><path class="a" d="M254,214.286a21.724,21.724,0,0,0-13.83-9.3c2.523-6.716,5.546-17.357-3.143-26.046-8.727-8.726-19.686-5.535-26.05-3.138a22.129,22.129,0,0,0-11.1-14.97c-14.071-8.117-31.893-2.172-32.694,14.676a107.207,107.207,0,0,1-3.74,22.7c-3.928,14.873-9.681,28.237-3.3,41.334a95.149,95.149,0,0,1-15.2,3.061c-5.679-14.967-1.458-29.63,1.867-41.17,2.336-8.109,4.751-16.492,5.239-26.649C152.923,156.2,167.2,142.1,186.774,142.1A41.249,41.249,0,0,1,219.4,158.22a36.941,36.941,0,0,1,6.453-.072c.423-15.513-4.782-28.924-10.179-42.829-5.663-14.589-11.518-29.674-12.446-49.859C201.3,23.828,170.68,0,129.346,0S57.388,23.816,55.47,65.462c-.928,20.184-6.783,35.27-12.446,49.858-5.4,13.905-10.6,27.316-10.179,42.829a36.961,36.961,0,0,1,6.453.072A41.247,41.247,0,0,1,71.913,142.1c19.3,0,33.843,13.826,34.739,32.692.487,10.147,2.9,18.529,5.238,26.637,3.325,11.541,7.545,26.2,1.866,41.172a95.129,95.129,0,0,1-15.2-3.063c6.482-13.336.422-26.912-3.533-42.2a105.782,105.782,0,0,1-3.512-21.828c-.8-16.868-18.643-22.787-32.694-14.68a22.128,22.128,0,0,0-11.1,14.97c-6.365-2.4-17.323-5.589-26.05,3.138-8.689,8.689-5.667,19.33-3.143,26.046a21.729,21.729,0,0,0-13.83,9.3c-5.115,7.38-6.16,17.186-2.6,24.4,2.99,6.061,8.874,9.738,16.14,10.088,11.922.575,21.586,3.359,30.112,5.816,7.2,2.073,14.2,4.092,21.091,4.092a28.929,28.929,0,0,0,18.792-6.658c12.4,4.743,27.787,6.667,41.114,6.667s28.709-1.916,41.117-6.667a28.937,28.937,0,0,0,18.793,6.656c6.89,0,13.894-2.018,21.088-4.091,8.526-2.457,18.19-5.241,30.112-5.816h0c7.267-.35,13.15-4.027,16.14-10.088C260.156,231.472,259.111,221.666,254,214.286ZM96.584,139.125c-8.12-7.555-7.14-9.066-20.8-18.732A30.322,30.322,0,0,1,68.9,77.571c.418-12.474-.225-25.677,9.551-39.182,12.614-17.425,34.483-21.016,50.9-9.465,16.432-11.563,38.3-7.942,50.9,9.464,9.8,13.537,9.146,27.085,9.551,39.18a30.329,30.329,0,0,1-6.892,42.826c-13.879,9.822-12.683,11.183-20.795,18.73-6.886,6.407-16.787,12.958-32.761,12.958S103.47,145.531,96.584,139.125Z" transform="translate(-0.001)"/></g><g transform="translate(78.132 75.91)"><path class="a" d="M245.563,155.274a159.2,159.2,0,0,0-79.421,0,15.154,15.154,0,0,0-5.094,27.078c9.949,7.041,12.7,9.919,17.493,15.044,6.377,6.814,12.971,13.86,27.311,13.86s20.934-7.046,27.31-13.86c4.562-4.877,7.391-7.9,17.493-15.044A15.154,15.154,0,0,0,245.563,155.274Z" transform="translate(-154.637 -150.241)"/></g><g transform="translate(84.565 37.401)"><path class="a" d="M256.9,100.74c-1.528-15.48-11.643-26.716-24.052-26.716-8.675,0-16.4,5.609-20.7,14.526-4.3-8.914-12.029-14.526-20.695-14.526-12.384,0-22.5,11.21-24.046,26.654a7.579,7.579,0,0,0,15.082,1.513c.72-7.174,4.741-13.01,8.964-13.01,3.513,0,7.067,4.189,8.451,9.961a7.579,7.579,0,0,0,7.309,5.81l9.731.078a7.558,7.558,0,0,0,7.435-5.831c1.376-5.8,4.936-10.018,8.465-10.018,4.235,0,8.257,5.853,8.967,13.047a7.58,7.58,0,0,0,7.533,6.835c.249,0,.5-.012.753-.037A7.579,7.579,0,0,0,256.9,100.74Z" transform="translate(-167.37 -74.024)"/></g></g></svg>