<svg xmlns="http://www.w3.org/2000/svg" width="211.346" height="259.565" viewBox="0 0 211.346 259.565"><defs><style>.a{fill:#fff;}</style></defs><g transform="translate(-1.282)"><g transform="translate(1.282)"><path class="a" d="M177.8,78.65c-.339-32.893,26.818-48.634,28.022-49.424C190.568,6.941,166.834,3.876,158.352,3.537c-20.179-2.069-39.419,11.886-49.687,11.886-10.231,0-26.066-11.6-42.822-11.3C43.8,4.459,23.509,16.946,12.15,36.655c-22.888,39.719-5.868,98.546,16.437,130.8,10.908,15.76,23.922,33.457,40.979,32.836,16.437-.658,22.643-10.645,42.522-10.645s25.464,10.645,42.841,10.325c17.7-.339,28.887-16.08,39.7-31.877a144.438,144.438,0,0,0,18-36.917C212.214,130.951,178.155,117.918,177.8,78.65Z" transform="translate(-1.282 59.258)"/><path class="a" d="M45.683,41.45C54.729,30.485,60.86,15.214,59.186,0,46.115.527,30.337,8.67,20.952,19.653,12.546,29.376,5.23,44.891,7.186,59.8,21.742,60.952,36.637,52.4,45.683,41.45Z" transform="translate(98.147)"/></g></g></svg>